<?xml version="1.0" encoding="UTF-8"?>
<svg width="434px" height="448px" viewBox="0 0 434 448" version="1.1" xmlns="http://www.w3.org/2000/svg" xmlns:xlink="http://www.w3.org/1999/xlink">
    <!-- Generator: Sketch 53.1 (72631) - https://sketchapp.com -->
    <title>quora</title>
    <desc>Created with Sketch.</desc>
    <g id="Page-1" stroke="none" stroke-width="1" fill="none" fill-rule="evenodd">
        <g id="quora" fill="#555555" fill-rule="nonzero">
            <path d="M433.5,354.7 L404.2,354.7 C402.7,368.2 393.7,385.5 371.2,385.5 C350.7,385.5 335.9,371.3 321.7,349.7 C365.9,315.5 396.4,262.2 396.4,196.7 C396.5,79.2 299.8,0 198,0 C98.3,0 0.3,79.7 0.3,196.7 C0.3,330.8 131.6,418.3 249.3,385.7 C269,419.3 295,448 344.5,448 C426.3,448 435.3,372.7 433.5,354.7 Z M290,297.2 C270.5,268 246.3,245 198.5,245 C168,245 144.2,255 129.5,267.8 L141.7,292.1 C147.9,289.1 154.7,288.1 161.5,288.1 C197,288.1 215.2,318.9 230.7,349.4 C220.7,352.4 210,353.6 198,353.6 C123,353.6 90.5,300.6 90.5,196.9 C90.5,92.5 123,39 198,39 C274.2,39 306.7,92.5 306.7,196.7 C306.8,238.5 301.3,272.3 290,297.2 Z" id="Shape"></path>
        </g>
    </g>
</svg>